<?xml version="1.0" encoding="utf-8"?>
<!-- Generator: Adobe Illustrator 19.0.0, SVG Export Plug-In . SVG Version: 6.00 Build 0)  -->
<svg version="1.1" id="Layer_1" xmlns="http://www.w3.org/2000/svg" xmlns:xlink="http://www.w3.org/1999/xlink" x="0px" y="0px"
	 viewBox="0 0 603.2 640" style="enable-background:new 0 0 603.2 640;" xml:space="preserve">
<style type="text/css">
	.st0{fill:#009895;}
	.st1{fill:#F6D60C;}
</style>
<g id="HitMan">
	<g id="T">
		<path id="XMLID_471_" class="st0" d="M443.3,470.5c-0.1-8.7,0.3-17.4-0.3-26c-0.5-6.3,1.3-9.2,7.9-8.3c1,0.1,2.1-0.5,3.2-0.8
			c4.5-0.1,9-0.4,13.4-0.2c4.5,0.2,5.8-1.8,5.8-6c0-13.7,0.5-27.3,0.3-41c-0.4-42.6-1.1-85.2-1.6-127.8
			c-0.5-38.1-0.9-83.9-1.2-122.1c0-5.4-24.7,6.5-45.1,20.4c-12.3,8.3-20.9,21.1-31.9,32.3c-0.5-2.3-1-3.6-1-4.9
			c-0.2-26.8-0.3-53.6-0.4-80.5c0-11.1-0.6-9.3,9.2-9.7c15.8-0.7,31.7,0.5,47.5-1.4c3,2.1,6.5,1.5,9.8,1.5
			c44.8-0.6,89.7-1.1,134.5-1.9c5.9-0.1,8.2,1.1,8.2,7.6c0,28.2,0.6,56.4,1,85.1c-3.4-0.2-4.7-2.5-6.3-4.1
			c-12.6-12.1-25.6-23.9-37.4-36.8c-7.2-8-15.4-9-24.7-7.8c-10.3,1.3-10.3,1.4-10.1,12.2c0.4,31.8,1.6,63.7,1.1,95.5
			c-0.9,59.8,1.4,119.6,1.5,179.5c0,8.9,0.1,8.9,8.9,8.8c5.6-0.1,11.2-0.1,16.8-0.2c3.7-0.1,5.3,1.5,5.3,5.2
			c0.1,10.5,0.2,21.1,0.4,31.6c0.1,3.8-1.8,5.1-5.4,5.1c-34.7,0.4-69.5,0.7-104.2,1.5C442.3,477.5,444.2,473.4,443.3,470.5z
			 M484.1,124.9c-1.1,10.3-0.2,20.5-0.1,30.8c0.3,26.6,0.9,53.2,1.3,79.8c0.4,30,0.7,60,1.1,90.1c0.5,38.8,0.8,77.5,1.5,116.3
			c0.1,5.4-1.4,7.1-6.8,6.7c-6-0.4-12.1,0.5-18.1,0c-6.5-0.6-5.9,3.3-5.9,7.5c0,4.3-0.1,7.6,6.2,7.4c23.5-0.6,47-0.7,70.6-1
			c10.3-0.1,10.1-0.2,9.7-10.3c-0.2-3.7-1.4-4.5-4.8-4.4c-6.7,0.3-13.5-0.1-20.2,0.3c-4.8,0.3-6.1-1.5-6.1-6.1
			c0.1-17.7,0-35.4-0.2-53.1c-0.9-85.8-1.7-171.6-3-257.4c-0.1-7.2,2-8.7,8.6-8.4c10.1,0.4,20.2,0.1,30.2-0.3
			c4.6-0.2,8,1.1,11.2,4.5c8.9,9,18.1,17.7,28.4,27.6c-0.2-14.6-0.6-27.7-0.5-40.8c0.1-5.1-1.5-6.3-6.5-6.2c-52,0.8-104,1.3-155.9,2
			c-5.8,0.1-13.3-1.7-16.9,1.3c-4.3,3.5-1.1,11.3-1.2,17.3c-0.2,9,0.2,18,0.3,27c0.6,0.3,1.2,0.5,1.8,0.8c3.3-3.6,6.4-7.3,9.8-10.8
			c6.9-7,12.8-16.6,21.2-20.1c8.7-3.6,19.8-1.4,29.9-1.3C474.5,123.9,479.5,122.2,484.1,124.9z"/>
		<path id="XMLID_389_" class="st1" d="M477.4,126.5c-4.6-2.6-2.9-2.8-7.7-2.9c-10.1-0.1-21.2-2.3-29.9,1.3
			c-8.4,3.5-14.3,13.1-21.2,20.1c-3.4,3.5-6.5,7.2-9.8,10.8c-0.6-0.3-1.2-0.5-1.8-0.8c-0.1-9-0.5-18-0.3-27
			c0.1-5.9-3.1-13.8,1.2-17.3c3.6-2.9,11.1-1.2,16.9-1.3c52-0.7,104-1.2,155.9-2c5-0.1,6.6,1.1,6.5,6.2c-0.1,13.1,0.3,26.3,0.5,40.8
			c-10.3-9.9-19.5-18.6-28.4-27.6c-3.3-3.3-6.6-4.7-11.2-4.5c-10.1,0.4-20.2,0.8-30.2,0.3c-6.6-0.3-8.7,1.2-8.6,8.4
			c1.2,85.8,2.1,171.6,3,257.4c0.2,17.7,0.3,35.4,0.2,53.1c0,4.6,1.2,6.4,6.1,6.1c6.7-0.4,13.4-0.1,20.2-0.3
			c3.4-0.1,4.7,0.7,4.8,4.4c0.4,10.1,0.6,10.2-9.7,10.3c-23.5,0.3-47.1,0.3-70.6,1c-6.3,0.2-6.2-3.1-6.2-7.4c0-4.2-0.6-8.1,5.9-7.5
			c6,0.5,12.1-0.4,18.1,0c5.3,0.4,6.8-1.3,6.8-6.7c-0.7-38.8-1-77.5-1.5-116.3c-0.4-30-3.8-161-4.2-193.5
			C482.2,129.4,477.6,129,477.4,126.5z"/>
	</g>
	<g id="Man">
		<g id="XMLID_64_">
			<path id="XMLID_69_" class="st0" d="M148.3,534.4c0.4-13.2,0.4-13.2,13.9-13.4c11.9-0.2,23.7-0.1,35.6-0.5
				c4.3-0.2,5.5,1.1,4.9,5.3c-0.6,3.9-0.5,7.9-0.8,12.4c3.6-1.1,4.5-3.8,6-5.8c10.3-14.3,31.1-19.3,46.8-11.4
				c4.7,2.4,8.1,6.1,11.2,10.1c0.7,1,1.7,2,2.2,3.2c2.5,6.3,5.5,4.4,8.7,0.6c3.5-4.2,7-8.3,10.5-12.5c0,0-0.2,0.1-0.2,0.1
				c1.3,0.1,2.2-0.4,2.8-1.5c0,0-0.1,0-0.1,0c1.4,0,2.5-0.6,3.4-1.6c2.7-0.9,5.4-1.8,8-2.7c0.9,0,1.8,0.2,2.7,0.1
				c27.6-1.4,44.6,12.6,46.3,40.3c1.5,25.6,0.9,51.4,1.3,77.1c0.1,3.3-1.3,4.3-4.4,4.2c-2.9-0.1-5.8,0.3-8.7,0.4
				c-12-1.7-24.1-0.4-36.1-0.5c-5.8,0-7.2-1.8-7.1-7.2c0.2-15.7-0.1-31.3-0.3-47c-0.1-4.9,0.5-9.9-1-14.7c-1.8-5.5-5.6-7.2-11-5.7
				c-4.9,1.4-6.5,7.4-4.5,15.9c0.1,17.2,0,34.3,0.5,51.5c0.2,6.3-1.4,9.2-8,8.2c-1.7-0.2-3.5,0.2-5.3,0.3c-2.2-1.6-4.7-1-7.2-1
				c-9.8,0.1-19.7-0.1-29.5,0.4c-5,0.2-6.5-1.4-6.5-6.4c0.1-18.3-0.3-36.7-0.5-55c0-3.1-0.2-6.2-1.8-9.1c-1.8-3.3-4.8-4.7-8.3-4.5
				c-3.3,0.2-5.1,2.5-6.2,5.4c-1.5,4.1-1.5,8.3-0.1,12.5c0.1,16.7-0.1,33.3,0.4,50c0.2,6.3-1.4,9.1-8,8.1c-1.7-0.3-3.5,0.3-5.3,0.4
				c-10.2-2.1-20.4-0.3-30.7-0.5c-14.4-0.4-12.1,1.9-12.4-12.5C149.2,596.6,148.8,565.5,148.3,534.4z"/>
			<path id="XMLID_66_" class="st0" d="M373.6,548.7c1.2-1.2,2.8-1.9,3.8-3.5c12.7-19.7,36.2-27.2,57.4-18.1
				c4.1,1.8,7.4,5.4,12.1,9.1c-2.5-11.3,4.7-9.7,10.7-9.7c5.1,0,10.3,0.1,15.4-0.1c3.3-0.1,4.9,0.8,4.8,4.5
				c-0.1,32.6,0.7,65.2,0.6,97.9c0,12.7-8.1,6.5-12.8,8.6c-2.2-0.3-4.4-0.6-6.6-0.7c-3.1-0.1-6.4,0.5-9.3-0.2
				c-4.3-1.1-0.6-6.2-3.5-8.5c-0.6,0.4-1.3,0.5-1.7,1c-14.7,16.9-48.5,16.3-65.2-6.8c-9.7-13.4-13.5-28.4-12.9-44.8
				C367,567.1,370.7,558,373.6,548.7z M434.6,610.2c19.8-11.9,21.4-42.1,3-55.5c-12.7-9.2-31.4-3.3-35.4,11.2
				c-6.9,14.4-4.3,30.8,6.4,40.8C416.1,613.7,425.5,615,434.6,610.2z"/>
			<path id="XMLID_65_" class="st0" d="M527.2,559.9c-3.1,6.7-3.1,13.9-3.1,21c0,16.1-0.2,32.2,0.5,48.2c0.2,6.2-1.6,8-7.4,7.2
				c-1.9-0.3-4,0.3-5.9,0.5c-5.6-0.5-7.9-3.5-7.1-9.1c0.4-2.8,0-5.8,0-8.7c-0.3-25-0.5-49.9-0.8-74.9c1-12.9,1-12.4,12-13.2
				c7-0.5,9.4,1.8,8.5,8.4c-0.1,1,0.1,2.1,0.2,3.2c2.3,0.3,2.6-1.7,3.6-2.7c11.8-12.3,26.3-14.7,42-10.5
				c14.1,3.8,20.2,14.6,22.2,28.2c2.6,17.8,1.1,35.8,1.8,53.6c0.2,6-0.2,12.1,0.3,18.1c0.4,5.2-1.4,6.9-6.4,6.4
				c-2.2-0.3-4.5,0.1-6.7,0.2c-6.5,0-7.6-3.6-7.4-9.5c0.4-13.2,0.1-26.4-0.2-39.6c-0.2-9.2,0.6-18.4-1.7-27.4
				c-1.6-6.6-5.1-11.4-11.8-13.4c-6.6-2-13.4-2-19.8,0.2C533.4,548.3,527.8,551.9,527.2,559.9z"/>
		</g>
		<g id="XMLID_55_">
			<path id="XMLID_60_" class="st1" d="M157.6,522.8c0.4-13.2,0.4-13.2,13.9-13.4c11.9-0.2,23.7-0.1,35.6-0.5
				c4.3-0.2,5.5,1.1,4.9,5.3c-0.6,3.9-0.5,7.9-0.8,12.4c3.6-1.1,4.5-3.8,6-5.8c10.3-14.3,31.1-19.3,46.8-11.4
				c4.7,2.4,8.1,6.1,11.2,10.1c0.7,1,1.7,2,2.2,3.2c2.5,6.3,5.5,4.4,8.7,0.6c3.5-4.2,7-8.3,10.5-12.5c0,0-0.2,0.1-0.2,0.1
				c1.3,0.1,2.2-0.4,2.8-1.5c0,0-0.1,0-0.1,0c1.4,0,2.5-0.6,3.4-1.6c2.7-0.9,5.4-1.8,8-2.7c0.9,0,1.8,0.2,2.7,0.1
				c27.6-1.4,44.6,12.6,46.3,40.3c1.5,25.6,0.9,51.4,1.3,77.1c0.1,3.3-1.3,4.3-4.4,4.2c-2.9-0.1-5.8,0.3-8.7,0.4
				c-12-1.7-24.1-0.4-36.1-0.5c-5.8,0-7.2-1.8-7.1-7.2c0.2-15.7-0.1-31.3-0.3-47c-0.1-4.9,0.5-9.9-1-14.7c-1.8-5.5-5.6-7.2-11-5.7
				c-4.9,1.4-6.5,7.4-4.5,15.9c0.1,17.2,0,34.3,0.5,51.5c0.2,6.3-1.4,9.2-8,8.2c-1.7-0.2-3.5,0.2-5.3,0.3c-2.2-1.6-4.7-1-7.2-1
				c-9.8,0.1-19.7-0.1-29.5,0.4c-5,0.2-6.5-1.4-6.5-6.4c0.1-18.3-0.3-36.7-0.5-55c0-3.1-0.2-6.2-1.8-9.1c-1.8-3.3-4.8-4.7-8.3-4.5
				c-3.3,0.2-5.1,2.5-6.2,5.4c-1.5,4.1-1.5,8.3-0.1,12.5c0.1,16.7-0.1,33.3,0.4,50c0.2,6.3-1.4,9.1-8,8.1c-1.7-0.3-3.5,0.3-5.3,0.4
				c-10.2-2.1-20.4-0.3-30.7-0.5c-14.4-0.4-12.1,1.9-12.4-12.5C158.4,584.9,158,553.9,157.6,522.8z"/>
			<path id="XMLID_57_" class="st1" d="M382.9,537.1c1.2-1.2,2.8-1.9,3.8-3.5c12.7-19.7,36.2-27.2,57.4-18.1
				c4.1,1.8,7.4,5.4,12.1,9.1c-2.5-11.3,4.7-9.7,10.7-9.7c5.1,0,10.3,0.1,15.4-0.1c3.3-0.1,4.9,0.8,4.8,4.5
				c-0.1,32.6,0.7,65.2,0.6,97.9c0,12.7-8.1,6.5-12.8,8.6c-2.2-0.3-4.4-0.6-6.6-0.7c-3.1-0.1-6.4,0.5-9.3-0.2
				c-4.3-1.1-0.6-6.2-3.5-8.5c-0.6,0.4-1.3,0.5-1.7,1c-14.7,16.9-48.5,16.3-65.2-6.8c-9.7-13.4-13.5-28.4-12.9-44.8
				C376.2,555.5,379.9,546.4,382.9,537.1z M443.9,598.6c19.8-11.9,21.4-42.1,3-55.5c-12.7-9.2-31.4-3.3-35.4,11.2
				c-6.9,14.4-4.3,30.8,6.4,40.8C425.4,602.1,434.8,603.3,443.9,598.6z"/>
			<path id="XMLID_56_" class="st1" d="M536.5,548.2c-3.1,6.7-3.1,13.9-3.1,21c0,16.1-0.2,32.2,0.5,48.2c0.2,6.2-1.6,8-7.4,7.2
				c-1.9-0.3-4,0.3-5.9,0.5c-5.6-0.5-7.9-3.5-7.1-9.1c0.4-2.8,0-5.8,0-8.7c-0.3-25-0.5-49.9-0.8-74.9c1-12.9,1-12.4,12-13.2
				c7-0.5,9.4,1.8,8.5,8.4c-0.1,1,0.1,2.1,0.2,3.2c2.3,0.3,2.6-1.7,3.6-2.7c11.8-12.3,26.3-14.7,42-10.5
				c14.1,3.8,20.2,14.6,22.2,28.2c2.6,17.8,1.1,35.8,1.8,53.6c0.2,6-0.2,12.1,0.3,18.1c0.4,5.2-1.4,6.9-6.4,6.4
				c-2.2-0.3-4.5,0.1-6.7,0.2c-6.5,0-7.6-3.6-7.4-9.5c0.4-13.2,0.1-26.4-0.2-39.6c-0.2-9.2,0.6-18.4-1.7-27.4
				c-1.6-6.6-5.1-11.4-11.8-13.4c-6.6-2-13.4-2-19.8,0.2C542.7,536.7,537,540.2,536.5,548.2z"/>
		</g>
	</g>
	<g id="H">
		<path id="XMLID_63_" class="st0" d="M369,419.1c-6-19.9-11.8-39.8-17.3-59.8c-2.9-10.3-5.2-20.7-7.7-31c-0.9-0.6-0.8-1.3-0.2-2.1
			l-1.1-1.5l-0.4-0.4l0.2-0.5c-18.6-67.1-37.1-134.3-55.7-201.4c-2.3-8.4-2.3-8.4-11-5.9c-31.2,8.9-62.5,17.8-93.8,26.5
			c-4.5,1.2-5.4,2.6-4.1,7.2c8,28.4,15.7,57,23.3,85.5c0.8,2.9,1.9,5.8,3,8.5c1.8,4.5-1.7,5.8-3.5,5.9c-10.7,0.6-19.6,6.9-29.8,8.9
			c-9.4,1.9-18.7,4.8-27.8,7.8c-4.8,1.6-6.8,1-8.2-4.4c-8.6-32.2-17.7-64.4-26.6-96.5C106.9,167,2.3,191,0.5,195.9
			c-1.6,4.1,67.8,248.6,83,303.3c1,3.8,2.2,5.7,6.9,4.2c24.9-7.8,50.4-13.7,75.2-22c7.2-2.4,15.1-3.5,22.7-5.3c4.3-1,5.3-2.5,4-6.9
			c-5.1-17-10.3-34-14.5-51.3c-3.1-12.5-6.5-24.9-10-37.3c-1.1-1.1-1.9-2.6-1.9-4.6l-0.1-4c0-0.4,0-0.7,0.1-1
			c-0.1-0.2-0.2-0.5-0.3-0.8c-1.1-3.7,0.7-4.7,3.6-5.5c19.6-5.6,39.1-11.2,58.7-16.8c3.4-1,4.8-0.5,5.9,3.5
			c4.6,15.9,9.4,31.7,13.9,47.6c4.4,15.6,8.6,31.4,12.3,47.2c1.5,6.3,3.5,8.1,10.3,6c26.1-7.9,52.4-15.1,78.7-22.4
			c5.4-1.5,10.8-2.7,16.3-3.8C369.2,425.2,370.4,423.6,369,419.1z"/>
		<path id="XMLID_54_" class="st1" d="M377.6,402.4c-6-19.9-11.8-39.8-17.3-59.8c-2.9-10.3-5.2-20.7-7.7-31
			c-0.9-0.6-0.8-1.3-0.2-2.1l-1.1-1.5l-0.4-0.4l0.2-0.5c-18.6-67.1-37.1-134.3-55.7-201.4c-2.3-8.4-2.3-8.4-11-5.9
			c-31.2,8.9-62.5,17.8-93.8,26.5c-4.5,1.2-5.4,2.6-4.1,7.2c8,28.4,15.7,57,23.3,85.5c0.8,2.9,1.9,5.8,3,8.5
			c1.8,4.5-1.7,5.8-3.5,5.9c-10.7,0.6-19.6,6.9-29.8,8.9c-9.4,1.9-18.7,4.8-27.8,7.8c-4.8,1.6-6.8,1-8.2-4.4
			c-8.6-32.2-17.7-64.4-26.6-96.5c-1.3,1.2-105.9,25.1-107.7,30c-1.6,4.1,67.8,248.6,83,303.3c1,3.8,2.2,5.7,6.9,4.2
			c24.9-7.8,50.4-13.7,75.2-22c7.2-2.4,15.1-3.5,22.7-5.3c4.3-1,5.3-2.5,4-6.9c-5.1-17-10.3-34-14.5-51.3
			c-3.1-12.5-6.5-24.9-10-37.3c-1.1-1.1-1.9-2.6-1.9-4.6l-0.1-4c0-0.4,0-0.7,0.1-1c-0.1-0.2-0.2-0.5-0.3-0.8
			c-1.1-3.7,0.7-4.7,3.6-5.5c19.6-5.6,39.1-11.2,58.7-16.8c3.4-1,4.8-0.5,5.9,3.5c4.6,15.9,9.4,31.7,13.9,47.6
			c4.4,15.6,8.6,31.4,12.3,47.2c1.5,6.3,3.5,8.1,10.3,6c26.1-7.9,52.4-15.1,78.7-22.4c5.4-1.5,10.8-2.7,16.3-3.8
			C377.8,408.5,379,406.8,377.6,402.4z"/>
	</g>
	<g id="I">
		<path id="XMLID_50_" class="st0" d="M319.9,31.6c8.1-13,21.5-16.8,35.2-18.9c22.1-3.4,44.2-3.6,65.7,3.6c4.3,1.4,8.4,3.2,12,6
			c9,7,9,14.2-0.2,21.3c-1.6,1.2-7.2,3.2-8.1,3.6c-17.4,7.5-35.8,9.1-54.5,8.1c-13.7-0.7-27.2-2.8-39.5-9.4
			C325,42.8,320.3,38.8,319.9,31.6z"/>
		<path id="XMLID_62_" class="st0" d="M425.6,304.8c-2.5-2.1-5.6-1.4-8.4-1.3c-19.5,0.2-39,0.2-58.5,0.9c-6.2,0.2-8.3-1.2-8.4-7.9
			c-0.5-69.9-1.4-139.8-2.1-209.6c1.4-10.7,1.4-10.7,13.1-10.9c22.6-0.3,45.2-0.5,67.9-0.9c4.2-0.1,6,0.9,5.8,5.5
			c-0.3,6.5-0.2,13,0.1,19.5c0.2,3.9-1.2,5-5,5c-14.6,0-29.1,0.6-43.7,0.4c-5.9-0.1-8.3,1.3-8.1,7.9c0.6,25.3,0.5,50.6,1,75.9
			c0.1,3.9-2.8,9.6,1.5,11.5c2.9,1.3,5.5-4.4,8.1-7c13.3-13.3,26.4-26.8,39.6-40.2c1.6-1.6,2.9-5.1,5.6-3.9c2.5,1.1,1.1,4.5,1.1,6.8
			c0.6,45,1.1,90,1.6,135C437,303.1,437,303.1,425.6,304.8z"/>
		<path id="XMLID_53_" class="st1" d="M440.5,295.9c-2.5-2.1-5.6-1.4-8.4-1.3c-19.5,0.2-39,0.2-58.5,0.9c-6.2,0.2-8.3-1.2-8.4-7.9
			c-0.5-69.9-1.4-139.8-2.1-209.6c1.4-10.7,1.4-10.7,13.1-10.9c22.6-0.3,45.2-0.5,67.9-0.9c4.2-0.1,6,0.9,5.8,5.5
			c-0.3,6.5-0.2,13,0.1,19.5c0.2,3.9-1.2,5-5,5c-14.6,0-29.1,0.6-43.7,0.4c-5.9-0.1-8.3,1.3-8.1,7.9c0.6,25.3,0.5,50.6,1,75.9
			c0.1,3.9-2.8,9.6,1.5,11.5c2.9,1.3,5.5-4.4,8.1-7c13.3-13.3,46.3-39.6,46.3-37.3c0.6,45,1.1,90,1.6,135
			C451.9,294.2,451.9,294.2,440.5,295.9z"/>
		<path id="XMLID_51_" class="st1" d="M341.3,21.8c8.1-13,21.5-16.8,35.2-18.9c22.1-3.4,44.2-3.6,65.7,3.6c4.3,1.4,8.4,3.2,12,6
			c9,7,9,14.2-0.2,21.3c-1.6,1.2-7.2,3.2-8.1,3.6c-17.4,7.5-35.8,9.1-54.5,8.1c-13.7-0.7-27.2-2.8-39.5-9.4
			C346.3,32.9,341.7,28.9,341.3,21.8z"/>
	</g>
</g>
<g id="XMLID_17_">
	<g id="XMLID_22_">
		<path id="XMLID_27_" d="M1902.2-521.7c0.4-9.8,0.4-9.8,10.5-9.8c8.8,0,17.6,0.2,26.4,0c3.2-0.1,4.1,0.9,3.6,4
			c-0.5,2.9-0.5,5.8-0.7,9.2c2.7-0.8,3.4-2.8,4.5-4.3c7.8-10.5,23.3-14,34.9-8c3.5,1.8,6,4.6,8.3,7.6c0.5,0.8,1.3,1.5,1.6,2.4
			c1.8,4.7,4,3.4,6.5,0.5c2.6-3.1,5.3-6.1,7.9-9.2c0,0-0.2,0.1-0.2,0.1c0.9,0.1,1.6-0.3,2.1-1.1c0,0-0.1,0-0.1,0
			c1.1,0,1.9-0.4,2.6-1.2c2-0.6,4-1.3,6-1.9c0.7,0,1.3,0.1,2,0.1c20.5-0.7,33,9.8,34,30.4c0.9,19.1,0.2,38.2,0.2,57.3
			c0,2.4-1,3.2-3.3,3.1c-2.1-0.1-4.3,0.1-6.5,0.2c-8.9-1.4-17.9-0.6-26.8-0.7c-4.3-0.1-5.3-1.4-5.2-5.5c0.3-11.6,0.2-23.3,0.2-34.9
			c0-3.6,0.5-7.3-0.6-10.9c-1.3-4.1-4.1-5.4-8.1-4.3c-3.6,1-4.9,5.4-3.5,11.8c-0.1,12.8-0.4,25.5-0.1,38.3c0.1,4.7-1.1,6.8-6,6
			c-1.3-0.2-2.6,0.1-4,0.2c-1.6-1.2-3.5-0.8-5.3-0.8c-7.3-0.1-14.6-0.3-21.9,0c-3.8,0.1-4.8-1.1-4.7-4.8c0.2-13.6,0.1-27.2,0.2-40.9
			c0-2.3-0.1-4.6-1.2-6.8c-1.3-2.5-3.5-3.6-6.2-3.4c-2.4,0.1-3.8,1.8-4.6,4c-1.2,3.1-1.2,6.2-0.2,9.3c-0.1,12.4-0.4,24.8-0.2,37.2
			c0.1,4.7-1.1,6.8-6,6c-1.3-0.2-2.6,0.2-3.9,0.3c-7.5-1.7-15.2-0.4-22.8-0.7c-10.7-0.4-9,1.3-9.1-9.4
			C1902.2-475.5,1902.2-498.6,1902.2-521.7z"/>
		<path id="XMLID_24_" d="M2069.5-508.7c0.9-0.9,2.1-1.4,2.9-2.6c9.6-14.5,27.2-19.9,42.9-12.8c3,1.4,5.4,4.1,8.9,6.9
			c-1.7-8.4,3.6-7.2,8.1-7.1c3.8,0.1,7.6,0.2,11.5,0.1c2.5-0.1,3.6,0.6,3.6,3.4c-0.4,24.2-0.2,48.5-0.5,72.8
			c-0.1,9.4-6.1,4.7-9.6,6.2c-1.6-0.2-3.3-0.5-4.9-0.6c-2.3-0.1-4.8,0.3-6.9-0.3c-3.2-0.8-0.4-4.6-2.5-6.3c-0.5,0.3-1,0.4-1.3,0.7
			c-11.1,12.4-36.2,11.6-48.4-5.7c-7.1-10.1-9.7-21.2-9.1-33.4C2064.4-495.1,2067.2-501.8,2069.5-508.7z M2114.2-462.4
			c14.8-8.6,16.4-31.1,2.8-41.2c-9.3-7-23.3-2.8-26.4,8c-5.3,10.6-3.5,22.8,4.4,30.4C2100.5-460,2107.4-458.9,2114.2-462.4z"/>
		<path id="XMLID_23_" d="M2183.6-498.9c-2.4,4.9-2.4,10.3-2.5,15.6c-0.2,12-0.5,23.9-0.2,35.9c0.1,4.6-1.3,5.9-5.6,5.2
			c-1.4-0.2-2.9,0.2-4.4,0.3c-4.2-0.4-5.8-2.6-5.2-6.8c0.3-2.1,0.1-4.3,0.1-6.5c0.1-18.6,0.1-37.1,0.2-55.7c0.9-9.6,0.9-9.2,9-9.7
			c5.2-0.3,6.9,1.5,6.2,6.4c-0.1,0.8,0.1,1.6,0.1,2.4c1.7,0.2,2-1.2,2.7-2c8.9-9,19.7-10.7,31.3-7.4c10.5,2.9,14.9,11.1,16.2,21.2
			c1.8,13.3,0.4,26.6,0.8,39.9c0.1,4.5-0.3,9,0,13.5c0.3,3.8-1.1,5.1-4.8,4.7c-1.6-0.2-3.3,0.1-5,0.1c-4.8-0.1-5.6-2.8-5.4-7.1
			c0.4-9.8,0.4-19.6,0.3-29.5c-0.1-6.8,0.6-13.7-1-20.4c-1.1-4.9-3.7-8.5-8.6-10.1c-4.9-1.6-9.9-1.6-14.8-0.1
			C2188.3-507.4,2184.1-504.8,2183.6-498.9z"/>
	</g>
	<path id="XMLID_21_" d="M2067-608.9c-4.3-14.8-8.3-29.7-12.3-44.7c-2-7.7-3.6-15.4-5.4-23.1c-0.6-0.5-0.6-1-0.2-1.5l-0.8-1.1
		l-0.3-0.3l0.2-0.4c-13.1-50.1-26.2-100.2-39.3-150.3c-1.6-6.2-1.6-6.2-8.1-4.5c-23.3,6.3-46.6,12.6-70,18.7
		c-3.4,0.9-4.1,1.9-3.2,5.3c5.6,21.2,11.1,42.5,16.4,63.8c0.5,2.2,1.4,4.3,2.1,6.3c1.3,3.4-1.3,4.3-2.7,4.3
		c-8,0.3-14.6,4.9-22.2,6.3c-7,1.3-13.9,3.4-20.8,5.5c-3.6,1.1-5,0.7-6.1-3.4c-6.1-24.1-12.5-48-18.8-72c-1,0.8-78.9,17.6-80.4,21.2
		c-1.2,3.1,47.8,185.5,58.6,226.3c0.7,2.8,1.6,4.3,5.1,3.2c18.6-5.5,37.6-9.6,56.1-15.6c5.4-1.7,11.3-2.4,16.9-3.7
		c3.2-0.7,3.9-1.8,3-5.1c-3.6-12.7-7.3-25.4-10.3-38.2c-2.2-9.3-4.6-18.6-7.1-27.8c-0.8-0.8-1.4-2-1.4-3.5v-3c0-0.3,0-0.5,0.1-0.8
		c-0.1-0.2-0.1-0.4-0.2-0.6c-0.8-2.8,0.5-3.5,2.7-4.1c14.6-3.9,29.2-7.9,43.8-11.9c2.5-0.7,3.5-0.3,4.4,2.7
		c3.2,11.9,6.7,23.7,9.8,35.5c3.1,11.6,6.1,23.4,8.6,35.2c1,4.7,2.5,6,7.6,4.6c19.5-5.6,39.1-10.7,58.7-15.9c4-1.1,8.1-1.9,12.2-2.7
		C2067.1-604.4,2068-605.6,2067-608.9z"/>
	<path id="XMLID_20_" d="M2114.9-687.4c-1.9-1.6-4.1-1.1-6.2-1.1c-14.5-0.1-29-0.2-43.5,0.1c-4.6,0.1-6.2-0.9-6.1-6
		c0.3-51.9,0.4-103.9,0.6-155.8c1.2-7.9,1.2-7.9,9.8-7.9c16.8,0,33.6,0.1,50.4,0c3.1,0,4.5,0.7,4.3,4.2c-0.3,4.8-0.3,9.7-0.1,14.5
		c0.1,2.9-1,3.7-3.7,3.6c-10.8-0.1-21.6,0.1-32.5-0.1c-4.4-0.1-6.1,0.9-6.1,5.8c0.2,18.8-0.1,37.6,0,56.4c0,2.9-2.2,7.1,1,8.6
		c2.2,1,4.1-3.2,6.1-5.1c10-9.7,19.9-19.6,29.8-29.4c1.2-1.2,2.2-3.7,4.2-2.8c1.9,0.9,0.7,3.3,0.7,5c0,33.5-0.1,66.9-0.2,100.4
		C2123.3-688.5,2123.3-688.5,2114.9-687.4z"/>
	<path id="XMLID_19_" d="M2092.8-791.9c0-9.8,0.1-19.6,0-29.4c0-3.7,2.3-3.3,4.7-3.3c40,0,80,0.1,120,0.1c9.4,0,9.4,0.1,9.3,9.6
		c0,8,0,16,0,24.4c-5.7-5.5-11.4-10.3-16.1-15.9c-5-5.8-10.5-8.5-18.2-7.7c-5.9,0.6-12,0.4-18,0c-4.4-0.2-5.7,1.1-5.7,5.6
		c0.1,32.8-0.1,65.6-0.2,98.5c-0.1,31.8,0,63.6-0.1,95.5c0,12.5-0.3,25-0.6,37.4c-0.1,3.7,1.2,5,4.9,4.8c4.8-0.2,9.7,0.1,14.5-0.1
		c5-0.2,3.3,3.4,3.6,5.9c0.3,2.7,0.1,4.8-3.7,4.8c-18.7-0.2-37.3-0.3-56-0.1c-4.5,0-4.1-2.6-4.2-5.5c-0.1-3.1,0-5.6,4.3-5.2
		c4.3,0.4,8.7-0.2,13,0.2c4.4,0.4,5.8-1.1,5.8-5.5c-0.2-17.2,0.1-34.3,0.1-51.5c0-31.2-0.3-62.3,0.2-93.5c0.4-28.5,0.2-57,0.6-85.4
		c0.1-4.5-1.2-6.1-5.9-5.9c-8.1,0.4-16.3,0.2-24.5,0c-2.7-0.1-4.7,0.8-6.6,2.8c-6.5,6.9-13,13.7-19.6,20.5
		C2093.8-791.3,2093.3-791.6,2092.8-791.9z"/>
	<path id="XMLID_18_" d="M2043.9-892.2c6.2-9.6,16.2-12.3,26.4-13.7c16.4-2.3,32.9-2.2,48.8,3.3c3.2,1.1,6.2,2.5,8.8,4.6
		c6.6,5.3,6.5,10.7-0.3,15.8c-1.2,0.9-5.4,2.3-6,2.6c-13,5.4-26.7,6.4-40.6,5.5c-10.2-0.7-20.2-2.4-29.2-7.4
		C2047.6-883.8,2044.2-886.9,2043.9-892.2z"/>
</g>
</svg>
