<?xml version="1.0" encoding="utf-8"?>
<!-- Generator: Adobe Illustrator 19.0.0, SVG Export Plug-In . SVG Version: 6.00 Build 0)  -->
<svg version="1.1" id="Layer_1" xmlns="http://www.w3.org/2000/svg" xmlns:xlink="http://www.w3.org/1999/xlink" x="0px" y="0px"
	 viewBox="0 0 200 200" style="enable-background:new 0 0 200 200;" xml:space="preserve">
<style type="text/css">
	.st0{fill:#422F21;}
	.st1{fill:#58B4AD;}
	.st2{fill:#CC7BAD;}
	.st3{fill:#E8A427;}
</style>
<g id="XMLID_2_">
	<path id="XMLID_4_" class="st0" d="M517.8,68c-8.9,5.1-17.2,11.4-28,12.2c-14.6,1.1-26.9-4.2-37.9-13.5
		c-7.4-8.7-9.4-19.3-10.8-30.2c0.5-5.5,2-11.9-3.6-15.2c-6-3.6-12.1-0.5-17.3,3.2c-5.1,3.6-9.9,7.5-14.7,11.5
		c-18.3,15.3-37.9,19-59.3,6.8c-2.4-4.7-4.7-9.4-7.1-14.2c-0.6-1.3-1.3-2.7-1.9-4c0-12.8,1.8-25.3,3.7-37.9
		c1.6-10.5,5.2-20.7,4.4-31.5c4.8-9.8,4.9-20.4,5-31c1.1-2.5,2.6-4.9,3.3-7.5c2.1-8.1,8-10.1,15-8.8c7.7,1.5,10.3,7.3,9.6,14.7
		c-0.3,3.4-0.8,6.8-1.2,10.2c-6.4,26.4-10.3,53.3-14.4,80.1c-0.6,4.1-0.7,8.4,3.6,11.1c7.9,3.5,14.5,0,20.3-4.5
		c11.9-9.2,23.2-19.3,37.7-24.4c1.4-0.1,2.9-0.1,4.3-0.2c25.4,1.8,33.2,7.8,38.5,29.7c0,1.4,0,2.8-0.1,4.3
		c-0.9,7.7,0.6,15.2,5.1,21.3c7.2,9.6,20,7.1,30-5.1c1.5-0.1,2.9-0.2,4.4-0.4C521.8,47.5,523.7,51.6,517.8,68z"/>
	<path id="XMLID_3_" class="st1" d="M530.6,43.1c-8.9,5.1-17.2,11.4-28,12.2c-14.6,1.1-26.9-4.2-37.9-13.5
		c-7.4-8.7-9.4-19.3-10.8-30.2c0.5-5.5,2-11.9-3.6-15.2c-6-3.6-12.1-0.5-17.3,3.2c-5.1,3.6-9.9,7.5-14.7,11.5
		c-18.3,15.3-37.9,19-59.3,6.8c-2.4-4.7-4.7-9.4-7.1-14.2c-0.6-1.3-1.3-2.7-1.9-4c0-12.8,1.8-25.3,3.7-37.9
		c1.6-10.5,5.2-20.7,4.4-31.5c4.8-9.8,4.9-20.4,5-31c1.1-2.5,2.6-4.9,3.3-7.5c2.1-8.1,8-10.1,15-8.8c7.7,1.5,10.3,7.3,9.6,14.7
		c-0.3,3.4-0.8,6.8-1.2,10.2c-6.4,26.4-10.3,53.3-14.4,80.1c-0.6,4.1-0.7,8.4,3.6,11.1c7.9,3.5,14.5,0,20.3-4.5
		c11.9-9.2,23.2-19.3,37.7-24.4c1.4-0.1,2.9-0.1,4.3-0.2c25.4,1.8,33.2,7.8,38.5,29.7c0,1.4,0,2.8-0.1,4.3
		c-0.9,7.7,0.6,15.2,5.1,21.3c7.2,9.6,20,7.1,30-5.1c1.5-0.1,2.9-0.2,4.4-0.4C534.6,22.6,536.5,26.6,530.6,43.1z"/>
</g>
<circle id="XMLID_5_" class="st2" cx="-350.4" cy="-92.2" r="81.5"/>
<circle id="XMLID_1_" class="st3" cx="121.9" cy="78" r="103"/>
</svg>
