<?xml version="1.0" encoding="utf-8"?>
<!-- Generator: Adobe Illustrator 19.0.0, SVG Export Plug-In . SVG Version: 6.00 Build 0)  -->
<svg version="1.1" id="Layer_1" xmlns="http://www.w3.org/2000/svg" xmlns:xlink="http://www.w3.org/1999/xlink" x="0px" y="0px"
	 viewBox="0 0 200 200" style="enable-background:new 0 0 200 200;" xml:space="preserve">
<style type="text/css">
	.st0{fill:#422F21;}
	.st1{fill:#58B4AD;}
	.st2{fill:#CC7BAD;}
	.st3{fill:#E8A427;}
</style>
<g id="XMLID_2_">
	<path id="XMLID_4_" class="st0" d="M517.8,68c-8.9,5.1-17.2,11.4-28,12.2c-14.6,1.1-26.9-4.2-37.9-13.5
		c-7.4-8.7-9.4-19.3-10.8-30.2c0.5-5.5,2-11.9-3.6-15.2c-6-3.6-12.1-0.5-17.3,3.2c-5.1,3.6-9.9,7.5-14.7,11.5
		c-18.3,15.3-37.9,19-59.3,6.8c-2.4-4.7-4.7-9.4-7.1-14.2c-0.6-1.3-1.3-2.7-1.9-4c0-12.8,1.8-25.3,3.7-37.9
		c1.6-10.5,5.2-20.7,4.4-31.5c4.8-9.8,4.9-20.4,5-31c1.1-2.5,2.6-4.9,3.3-7.5c2.1-8.1,8-10.1,15-8.8c7.7,1.5,10.3,7.3,9.6,14.7
		c-0.3,3.4-0.8,6.8-1.2,10.2c-6.4,26.4-10.3,53.3-14.4,80.1c-0.6,4.1-0.7,8.4,3.6,11.1c7.9,3.5,14.5,0,20.3-4.5
		c11.9-9.2,23.2-19.3,37.7-24.4c1.4-0.1,2.9-0.1,4.3-0.2c25.4,1.8,33.2,7.8,38.5,29.7c0,1.4,0,2.8-0.1,4.3
		c-0.9,7.7,0.6,15.2,5.1,21.3c7.2,9.6,20,7.1,30-5.1c1.5-0.1,2.9-0.2,4.4-0.4C521.8,47.5,523.7,51.6,517.8,68z"/>
	<path id="XMLID_3_" class="st1" d="M530.6,43.1c-8.9,5.1-17.2,11.4-28,12.2c-14.6,1.1-26.9-4.2-37.9-13.5
		c-7.4-8.7-9.4-19.3-10.8-30.2c0.5-5.5,2-11.9-3.6-15.2c-6-3.6-12.1-0.5-17.3,3.2c-5.1,3.6-9.9,7.5-14.7,11.5
		c-18.3,15.3-37.9,19-59.3,6.8c-2.4-4.7-4.7-9.4-7.1-14.2c-0.6-1.3-1.3-2.7-1.9-4c0-12.8,1.8-25.3,3.7-37.9
		c1.6-10.5,5.2-20.7,4.4-31.5c4.8-9.8,4.9-20.4,5-31c1.1-2.5,2.6-4.9,3.3-7.5c2.1-8.1,8-10.1,15-8.8c7.7,1.5,10.3,7.3,9.6,14.7
		c-0.3,3.4-0.8,6.8-1.2,10.2c-6.4,26.4-10.3,53.3-14.4,80.1c-0.6,4.1-0.7,8.4,3.6,11.1c7.9,3.5,14.5,0,20.3-4.5
		c11.9-9.2,23.2-19.3,37.7-24.4c1.4-0.1,2.9-0.1,4.3-0.2c25.4,1.8,33.2,7.8,38.5,29.7c0,1.4,0,2.8-0.1,4.3
		c-0.9,7.7,0.6,15.2,5.1,21.3c7.2,9.6,20,7.1,30-5.1c1.5-0.1,2.9-0.2,4.4-0.4C534.6,22.6,536.5,26.6,530.6,43.1z"/>
</g>
<circle id="XMLID_5_" class="st2" cx="-350.4" cy="-92.2" r="81.5"/>
<circle id="XMLID_1_" class="st3" cx="-368.7" cy="112" r="103"/>
<g>
	<path id="XMLID_7_" class="st0" d="M109.8,96.7c-0.2,4.3,4.1,4.4,6.2,6.6c8.2,9.2,17.4,11,27.6,3.2c0.5-0.4,1.2-0.4,1.7-0.8
		c12.5-9.9,23.3-6.7,33.6,3.9c3.4,3.6,7.9,6.2,11.9,9.2c1.8,1.4,3.7,3.1,1.3,4.8c-1.9,1.3-3.1,5.7-7.1,2.4
		c-6.5-5.3-13.4-10.1-19.9-15.3c-2.5-2-4.4-2.3-7.3-0.9c-8.7,4.2-17.5,8-26.2,12.2c-2.9,1.4-4.9,1.1-7.4-0.9
		c-7.4-5.8-15.1-11.4-22.4-17.2c-2.5-2-4.5-2.1-7.4-0.7c-8.1,4-16.5,7.4-24.5,11.5c-4,2.1-6.8,1.5-10.1-1.2
		c-6.2-5-12.8-9.5-18.9-14.5c-3.8-3.2-7.1-4.1-11.7-1.5c-6.4,3.6-13.3,6.1-19.9,9.4c-3.8,1.9-5,0.1-6.6-2.8c-1.8-3.4,0-4.4,2.5-5.5
		c9.5-4.3,19.1-8.6,28.5-13.2c2.7-1.3,4.2-0.2,6.1,1.3c7.5,5.7,15.2,11.2,22.6,17c2.7,2.2,4.9,2.2,7.9,0.8C77.7,101,85.6,97.9,93,94
		c4.7-2.5,8.4-2.5,12.4,1.2C106.4,96.2,107.7,98.5,109.8,96.7L109.8,96.7z"/>
	<path id="XMLID_6_" class="st1" d="M114.8,84.3c-0.2,4.3,4.1,4.4,6.2,6.6c8.2,9.2,17.4,11,27.6,3.2c0.5-0.4,1.2-0.4,1.7-0.8
		c12.5-9.9,23.3-6.7,33.6,3.9c3.4,3.6,7.9,6.2,11.9,9.2c1.8,1.4,3.7,3.1,1.3,4.8c-1.9,1.3-3.1,5.7-7.1,2.4
		c-6.5-5.3-13.4-10.1-19.9-15.3c-2.5-2-4.4-2.3-7.3-0.9c-8.7,4.2-17.5,8-26.2,12.2c-2.9,1.4-4.9,1.1-7.4-0.9
		c-7.4-5.8-15.1-11.4-22.4-17.2c-2.5-2-4.5-2.1-7.4-0.7c-8.1,4-16.5,7.4-24.5,11.5c-4,2.1-6.8,1.5-10.1-1.2
		c-6.2-5-12.8-9.5-18.9-14.5c-3.8-3.2-7.1-4.1-11.7-1.5c-6.4,3.6-13.3,6.1-19.9,9.4c-3.8,1.9-5,0.1-6.6-2.8c-1.8-3.4,0-4.4,2.5-5.5
		c9.5-4.3,19.1-8.6,28.5-13.2c2.7-1.3,4.2-0.2,6.1,1.3c7.5,5.7,15.2,11.2,22.6,17c2.7,2.2,4.9,2.2,7.9,0.8
		c7.5-3.7,15.4-6.7,22.8-10.6c4.7-2.5,8.4-2.5,12.4,1.2C111.4,83.9,112.6,86.1,114.8,84.3L114.8,84.3z"/>
</g>
</svg>
