<?xml version="1.0" encoding="utf-8"?>
<!-- Generator: Adobe Illustrator 19.0.0, SVG Export Plug-In . SVG Version: 6.00 Build 0)  -->
<svg version="1.1" id="Layer_1" xmlns="http://www.w3.org/2000/svg" xmlns:xlink="http://www.w3.org/1999/xlink" x="0px" y="0px"
	 viewBox="0 0 200 200" style="enable-background:new 0 0 200 200;" xml:space="preserve">
<style type="text/css">
	.st0{fill:#422F21;}
	.st1{fill:#58B4AD;}
	.st2{fill:#CC7BAD;}
	.st3{fill:#E8A427;}
	.st4{fill:#DA929D;}
	.st5{fill:#56B6AF;}
	.st6{fill:#E9A31E;}
	.st7{fill:#D74132;}
	.st8{fill:#E8A229;}
</style>
<g id="XMLID_2_">
	<path id="XMLID_4_" class="st0" d="M517.8,68c-8.9,5.1-17.2,11.4-28,12.2c-14.6,1.1-26.9-4.2-37.9-13.5
		c-7.4-8.7-9.4-19.3-10.8-30.2c0.5-5.5,2-11.9-3.6-15.2c-6-3.6-12.1-0.5-17.3,3.2c-5.1,3.6-9.9,7.5-14.7,11.5
		c-18.3,15.3-37.9,19-59.3,6.8c-2.4-4.7-4.7-9.4-7.1-14.2c-0.6-1.3-1.3-2.7-1.9-4c0-12.8,1.8-25.3,3.7-37.9
		c1.6-10.5,5.2-20.7,4.4-31.5c4.8-9.8,4.9-20.4,5-31c1.1-2.5,2.6-4.9,3.3-7.5c2.1-8.1,8-10.1,15-8.8c7.7,1.5,10.3,7.3,9.6,14.7
		c-0.3,3.4-0.8,6.8-1.2,10.2c-6.4,26.4-10.3,53.3-14.4,80.1c-0.6,4.1-0.7,8.4,3.6,11.1c7.9,3.5,14.5,0,20.3-4.5
		c11.9-9.2,23.2-19.3,37.7-24.4c1.4-0.1,2.9-0.1,4.3-0.2c25.4,1.8,33.2,7.8,38.5,29.7c0,1.4,0,2.8-0.1,4.3
		c-0.9,7.7,0.6,15.2,5.1,21.3c7.2,9.6,20,7.1,30-5.1c1.5-0.1,2.9-0.2,4.4-0.4C521.8,47.5,523.7,51.6,517.8,68z"/>
	<path id="XMLID_3_" class="st1" d="M530.6,43.1c-8.9,5.1-17.2,11.4-28,12.2c-14.6,1.1-26.9-4.2-37.9-13.5
		c-7.4-8.7-9.4-19.3-10.8-30.2c0.5-5.5,2-11.9-3.6-15.2c-6-3.6-12.1-0.5-17.3,3.2c-5.1,3.6-9.9,7.5-14.7,11.5
		c-18.3,15.3-37.9,19-59.3,6.8c-2.4-4.7-4.7-9.4-7.1-14.2c-0.6-1.3-1.3-2.7-1.9-4c0-12.8,1.8-25.3,3.7-37.9
		c1.6-10.5,5.2-20.7,4.4-31.5c4.8-9.8,4.9-20.4,5-31c1.1-2.5,2.6-4.9,3.3-7.5c2.1-8.1,8-10.1,15-8.8c7.7,1.5,10.3,7.3,9.6,14.7
		c-0.3,3.4-0.8,6.8-1.2,10.2c-6.4,26.4-10.3,53.3-14.4,80.1c-0.6,4.1-0.7,8.4,3.6,11.1c7.9,3.5,14.5,0,20.3-4.5
		c11.9-9.2,23.2-19.3,37.7-24.4c1.4-0.1,2.9-0.1,4.3-0.2c25.4,1.8,33.2,7.8,38.5,29.7c0,1.4,0,2.8-0.1,4.3
		c-0.9,7.7,0.6,15.2,5.1,21.3c7.2,9.6,20,7.1,30-5.1c1.5-0.1,2.9-0.2,4.4-0.4C534.6,22.6,536.5,26.6,530.6,43.1z"/>
</g>
<circle id="XMLID_5_" class="st2" cx="-350.4" cy="-92.2" r="81.5"/>
<circle id="XMLID_1_" class="st3" cx="-368.7" cy="112" r="103"/>
<g id="XMLID_9_">
	<path id="XMLID_7_" class="st0" d="M-44.1-184.1c-0.2,4.3,4.1,4.4,6.2,6.6c8.2,9.2,17.4,11,27.6,3.2c0.5-0.4,1.2-0.4,1.7-0.8
		c12.5-9.9,23.3-6.7,33.6,3.9c3.4,3.6,7.9,6.2,11.9,9.2c1.8,1.4,3.7,3.1,1.3,4.8c-1.9,1.3-3.1,5.7-7.1,2.4
		c-6.5-5.3-13.4-10.1-19.9-15.3c-2.5-2-4.4-2.3-7.3-0.9c-8.7,4.2-17.5,8-26.2,12.2c-2.9,1.4-4.9,1.1-7.4-0.9
		c-7.4-5.8-15.1-11.4-22.4-17.2c-2.5-2-4.5-2.1-7.4-0.7c-8.1,4-16.5,7.4-24.5,11.5c-4,2.1-6.8,1.5-10.1-1.2
		c-6.2-5-12.8-9.5-18.9-14.5c-3.8-3.2-7.1-4.1-11.7-1.5c-6.4,3.6-13.3,6.1-19.9,9.4c-3.8,1.9-5,0.1-6.6-2.8c-1.8-3.4,0-4.4,2.5-5.5
		c9.5-4.3,19.1-8.6,28.5-13.2c2.7-1.3,4.2-0.2,6.1,1.3c7.5,5.7,15.2,11.2,22.6,17c2.7,2.2,4.9,2.2,7.9,0.8
		c7.5-3.7,15.4-6.7,22.8-10.6c4.7-2.5,8.4-2.5,12.4,1.2C-47.5-184.6-46.3-182.3-44.1-184.1L-44.1-184.1z"/>
	<path id="XMLID_6_" class="st1" d="M-39.1-196.5c-0.2,4.3,4.1,4.4,6.2,6.6c8.2,9.2,17.4,11,27.6,3.2c0.5-0.4,1.2-0.4,1.7-0.8
		c12.5-9.9,23.3-6.7,33.6,3.9c3.4,3.6,7.9,6.2,11.9,9.2c1.8,1.4,3.7,3.1,1.3,4.8c-1.9,1.3-3.1,5.7-7.1,2.4
		c-6.5-5.3-13.4-10.1-19.9-15.3c-2.5-2-4.4-2.3-7.3-0.9c-8.7,4.2-17.5,8-26.2,12.2c-2.9,1.4-4.9,1.1-7.4-0.9
		c-7.4-5.8-15.1-11.4-22.4-17.2c-2.5-2-4.5-2.1-7.4-0.7c-8.1,4-16.5,7.4-24.5,11.5c-4,2.1-6.8,1.5-10.1-1.2
		c-6.2-5-12.8-9.5-18.9-14.5c-3.8-3.2-7.1-4.1-11.7-1.5c-6.4,3.6-13.3,6.1-19.9,9.4c-3.8,1.9-5,0.1-6.6-2.8c-1.8-3.4,0-4.4,2.5-5.5
		c9.5-4.3,19.1-8.6,28.5-13.2c2.7-1.3,4.2-0.2,6.1,1.3c7.5,5.7,15.2,11.2,22.6,17c2.7,2.2,4.9,2.2,7.9,0.8
		c7.5-3.7,15.4-6.7,22.8-10.6c4.7-2.5,8.4-2.5,12.4,1.2C-42.5-197-41.3-194.7-39.1-196.5L-39.1-196.5z"/>
</g>
<g id="XMLID_10_">
	<circle id="XMLID_27_" class="st4" cx="-154.4" cy="-40.3" r="57.7"/>
	<g id="XMLID_19_">
		<path id="XMLID_26_" d="M-135.7-51.3l-5.8-4.5l-15.5,18.3l-29.3-5.5l-19.8,21.3l-28.5-5.3c0,0-17.8,21.5-18.5,21.3s-26-5.3-26-5.3
			l-3.5,8l32.5,5.5l17.8-18.8l29.5,3.8l17.5-18.8l30.5,4.6L-135.7-51.3z"/>
	</g>
	<g id="XMLID_11_">
		<path id="XMLID_23_" class="st5" d="M-286.1-7.7l3.9-9l0.4,0.1c2.5,0.5,23.4,4.6,25.9,5.2c1.5-1.1,11.8-13.4,18.2-21l0.2-0.2
			l28.5,5.3l19.8-21.3l29.2,5.5l15.6-18.4l6.5,5.1l-19.5,25.3l-30.5-4.6l-17.5,18.7l-29.5-3.8L-252.7-2L-286.1-7.7z"/>
		<path id="XMLID_20_" d="M-144.4-60.8l5.8,4.5l-19,24.6l-30.5-4.6l-17.5,18.8l-29.5-3.8l-17.8,18.8l-32.5-5.5l3.5-8
			c0,0,25.3,5,26,5.3c0,0,0,0,0,0c0.9,0,18.5-21.3,18.5-21.3l28.5,5.3l19.8-21.3l29.3,5.5L-144.4-60.8 M-144.6-62.2l-0.6,0.7
			l-15.1,17.8l-28.7-5.4l-0.5-0.1l-0.4,0.4l-19.4,20.8l-28-5.2l-0.6-0.1l-0.4,0.5c-6.1,7.3-15.9,19.1-17.9,20.8
			c-3.3-0.7-21.7-4.4-25.6-5.2l-0.8-0.2l-0.3,0.7l-3.5,8l-0.5,1.2l1.3,0.2l32.5,5.5l0.5,0.1l0.4-0.4l17.4-18.4l29,3.7l0.5,0.1
			l0.3-0.4l17.1-18.4l30,4.5l0.6,0.1l0.4-0.5l19-24.6l0.6-0.8l-0.8-0.6l-5.8-4.5L-144.6-62.2L-144.6-62.2z"/>
	</g>
</g>
<g id="XMLID_15_">
	<g id="XMLID_12_">
		<path id="XMLID_41_" d="M-219.2,372.4c-2.3-4.7,0-85.5,0-85.5l62.2-8.5l-63.2-60.6l-81.3,69.1L-219.2,372.4z"/>
	</g>
	<g id="XMLID_8_">
		<path id="XMLID_39_" class="st3" d="M-302.3,252.7l82.1-69.8l64.3,61.6l-62.8,8.6c-0.8,28-1.8,81.2,0,84.8l1.5,2.9L-302.3,252.7z"
			/>
		<path id="XMLID_36_" d="M-220.3,183.6l63.2,60.6l-62.2,8.5c0,0-2.3,80.8,0,85.5l-82.4-85.5L-220.3,183.6 M-220.2,182.3l-0.7,0.6
			l-81.3,69.1l-0.8,0.7l0.7,0.8l82.4,85.5l4.5,4.7l-2.9-5.9c-1.6-3.2-0.8-51.8,0.1-84.1l61.3-8.4l2-0.3l-1.5-1.4l-63.2-60.6
			L-220.2,182.3L-220.2,182.3z"/>
	</g>
</g>
<g id="XMLID_24_">
	<path id="XMLID_62_" class="st6" d="M263.8-52.2c-9.7,0-19.2-1.8-28.3-5.4c-20.8-8.2-36.9-24.7-45.2-46.6
		c-8.4-21.9-8-46.5,0.9-69.3c14.1-35.9,47.5-60,83.1-60c9.7,0,19.2,1.8,28.3,5.4c20.8,8.2,36.9,24.7,45.2,46.6
		c8.4,21.9,8,46.5-0.9,69.3C332.8-76.3,299.4-52.2,263.8-52.2C263.8-52.2,263.8-52.2,263.8-52.2z M263.3-182.7
		c-26.4,0-38.5,20.7-38.5,39.9c0,10.5,3.4,20.2,9.6,27.4c7,8.1,17,12.4,28.9,12.4c26.4,0,38.5-20.7,38.5-39.9
		C301.8-162.1,289.8-182.7,263.3-182.7z"/>
	<path id="XMLID_57_" d="M274.3-233c9.4,0,18.9,1.7,28.1,5.3c42.7,16.8,62.5,68.4,44.1,115.3c-14.5,36.8-48.2,59.7-82.7,59.7
		c-9.4,0-18.9-1.7-28.1-5.3c-42.7-16.8-62.5-68.4-44.1-115.3C206.1-210.1,239.8-233,274.3-233 M263.3-102.5c51.9,0,52-80.7,0-80.7
		C211.4-183.2,211.3-102.5,263.3-102.5 M274.3-234c-17.4,0-34.5,5.6-49.4,16.2c-15.3,10.8-27.1,26.1-34.2,44.1
		c-18.6,47.3,1.4,99.6,44.6,116.5c9.1,3.6,18.7,5.4,28.5,5.4c17.4,0,34.5-5.6,49.4-16.2c15.3-10.8,27.1-26.1,34.2-44.1
		c18.6-47.3-1.4-99.6-44.6-116.5C293.6-232.2,284.1-234,274.3-234L274.3-234z M263.3-103.5c-11.8,0-21.6-4.2-28.5-12.3
		c-6.1-7.1-9.5-16.8-9.5-27.1c0-19,11.9-39.4,38-39.4c11.8,0,21.6,4.2,28.5,12.3c6.1,7.1,9.5,16.8,9.5,27.1
		C301.3-123.9,289.4-103.5,263.3-103.5L263.3-103.5z"/>
</g>
<g>
	<polyline id="XMLID_30_" class="st0" points="20.7,37.5 184.5,112.1 192.3,127.5 184.2,155.6 12.3,80.4 15.7,37.3 	"/>
	<path id="XMLID_28_" class="st1" d="M106.4,90.7c1.2,2.7,4,3.2,6.3,4.3c25.6,11.7,51.1,23.5,76.8,34.9c4.5,2,6.4,3.6,3.4,8.6
		c-3.3,5.4-6,11.3-8.6,17.1c-1.8,3.9-4,4.4-7.8,2.6c-52.2-23.8-104.5-47.5-156.8-71.1c-4.7-2.1-6.1-4.1-3.2-8.8
		c3.2-5.2,5.9-10.8,8.4-16.4c1.9-4.4,3.9-5.2,8.5-3C54.7,69,76.2,78.6,97.8,88.4C100.5,89.6,103,91.8,106.4,90.7
		C106.4,90.7,106.4,90.7,106.4,90.7z"/>
	<path id="XMLID_25_" class="st7" d="M106.4,90.7C106.4,90.7,106.4,90.7,106.4,90.7c-0.9-3.7-4.5-4-7.1-5.2
		C76.8,75.2,54.1,65.2,31.6,54.8c-6.7-3.1-6.3-10.8-10.9-17.3c6.9,1.1,11.3,3.8,15.8,5.8c46.5,21,92.8,42.4,139.5,63
		c9.4,4.2,13.7,10.7,16.3,21.2c-9.7-4.3-18.6-8.2-27.5-12.3c-17.2-7.8-34.4-15.7-51.5-23.6C111,90.6,108.9,89.9,106.4,90.7z"/>
	<path id="XMLID_18_" class="st8" d="M15.7,37.3c16.6,16.1,3.1,28.9-3.4,43.1c-7.1-9.8-11.8-18.9-3.5-30
		C11.6,46.5,13.3,41.8,15.7,37.3z"/>
</g>
</svg>
