<?xml version="1.0" encoding="utf-8"?>
<!-- Generator: Adobe Illustrator 19.0.0, SVG Export Plug-In . SVG Version: 6.00 Build 0)  -->
<svg version="1.1" id="Layer_1" xmlns="http://www.w3.org/2000/svg" xmlns:xlink="http://www.w3.org/1999/xlink" x="0px" y="0px"
	 viewBox="0 0 200 200" style="enable-background:new 0 0 200 200;" xml:space="preserve">
<style type="text/css">
	.st0{fill:#422F21;}
	.st1{fill:#E8A229;}
</style>
<g id="XMLID_2_">
	<path id="XMLID_4_" class="st0" d="M72.1,43.5c73.7-0.4,121.2,55.1,107.3,114.6c-5.7,24.4-10.4,26.7-32,15.2
		c-5.9-3.1-8.2-6.6-5.5-14c10.5-28.8,1.1-56.3-23.7-72.3c-25.5-16.4-61.4-13.9-81.7,7.9c-8.4,9.1-13.7,7.6-22.4,2.3
		c-17.9-11-18.3-10.7-3.1-25.9C30.5,52,54.6,44.4,72.1,43.5z"/>
	<path id="XMLID_3_" class="st1" d="M90.1,20c73.7-0.4,121.2,55.1,107.3,114.6c-5.7,24.4-10.4,26.7-32,15.2c-5.9-3.1-8.2-6.6-5.5-14
		c10.5-28.8,1.1-56.3-23.7-72.3c-25.5-16.4-61.4-13.9-81.7,7.9c-8.4,9.1-13.7,7.6-22.4,2.3C14.2,62.8,13.8,63,29,47.9
		C48.4,28.5,72.6,20.9,90.1,20z"/>
</g>
</svg>
