<?xml version="1.0" encoding="utf-8"?>
<!-- Generator: Adobe Illustrator 19.0.0, SVG Export Plug-In . SVG Version: 6.00 Build 0)  -->
<svg version="1.1" id="Layer_1" xmlns="http://www.w3.org/2000/svg" xmlns:xlink="http://www.w3.org/1999/xlink" x="0px" y="0px"
	 viewBox="0 0 200 200" style="enable-background:new 0 0 200 200;" xml:space="preserve">
<style type="text/css">
	.st0{fill:#422F21;}
	.st1{fill:#58B4AD;}
	.st2{fill:#CC7BAD;}
	.st3{fill:#E8A427;}
	.st4{fill:#DA929D;}
	.st5{fill:#56B6AF;}
</style>
<g id="XMLID_2_">
	<path id="XMLID_4_" class="st0" d="M517.8,68c-8.9,5.1-17.2,11.4-28,12.2c-14.6,1.1-26.9-4.2-37.9-13.5
		c-7.4-8.7-9.4-19.3-10.8-30.2c0.5-5.5,2-11.9-3.6-15.2c-6-3.6-12.1-0.5-17.3,3.2c-5.1,3.6-9.9,7.5-14.7,11.5
		c-18.3,15.3-37.9,19-59.3,6.8c-2.4-4.7-4.7-9.4-7.1-14.2c-0.6-1.3-1.3-2.7-1.9-4c0-12.8,1.8-25.3,3.7-37.9
		c1.6-10.5,5.2-20.7,4.4-31.5c4.8-9.8,4.9-20.4,5-31c1.1-2.5,2.6-4.9,3.3-7.5c2.1-8.1,8-10.1,15-8.8c7.7,1.5,10.3,7.3,9.6,14.7
		c-0.3,3.4-0.8,6.8-1.2,10.2c-6.4,26.4-10.3,53.3-14.4,80.1c-0.6,4.1-0.7,8.4,3.6,11.1c7.9,3.5,14.5,0,20.3-4.5
		c11.9-9.2,23.2-19.3,37.7-24.4c1.4-0.1,2.9-0.1,4.3-0.2c25.4,1.8,33.2,7.8,38.5,29.7c0,1.4,0,2.8-0.1,4.3
		c-0.9,7.7,0.6,15.2,5.1,21.3c7.2,9.6,20,7.1,30-5.1c1.5-0.1,2.9-0.2,4.4-0.4C521.8,47.5,523.7,51.6,517.8,68z"/>
	<path id="XMLID_3_" class="st1" d="M530.6,43.1c-8.9,5.1-17.2,11.4-28,12.2c-14.6,1.1-26.9-4.2-37.9-13.5
		c-7.4-8.7-9.4-19.3-10.8-30.2c0.5-5.5,2-11.9-3.6-15.2c-6-3.6-12.1-0.5-17.3,3.2c-5.1,3.6-9.9,7.5-14.7,11.5
		c-18.3,15.3-37.9,19-59.3,6.8c-2.4-4.7-4.7-9.4-7.1-14.2c-0.6-1.3-1.3-2.7-1.9-4c0-12.8,1.8-25.3,3.7-37.9
		c1.6-10.5,5.2-20.7,4.4-31.5c4.8-9.8,4.9-20.4,5-31c1.1-2.5,2.6-4.9,3.3-7.5c2.1-8.1,8-10.1,15-8.8c7.7,1.5,10.3,7.3,9.6,14.7
		c-0.3,3.4-0.8,6.8-1.2,10.2c-6.4,26.4-10.3,53.3-14.4,80.1c-0.6,4.1-0.7,8.4,3.6,11.1c7.9,3.5,14.5,0,20.3-4.5
		c11.9-9.2,23.2-19.3,37.7-24.4c1.4-0.1,2.9-0.1,4.3-0.2c25.4,1.8,33.2,7.8,38.5,29.7c0,1.4,0,2.8-0.1,4.3
		c-0.9,7.7,0.6,15.2,5.1,21.3c7.2,9.6,20,7.1,30-5.1c1.5-0.1,2.9-0.2,4.4-0.4C534.6,22.6,536.5,26.6,530.6,43.1z"/>
</g>
<circle id="XMLID_5_" class="st2" cx="-350.4" cy="-92.2" r="81.5"/>
<circle id="XMLID_1_" class="st3" cx="-368.7" cy="112" r="103"/>
<g id="XMLID_9_">
	<path id="XMLID_7_" class="st0" d="M-44.1-184.1c-0.2,4.3,4.1,4.4,6.2,6.6c8.2,9.2,17.4,11,27.6,3.2c0.5-0.4,1.2-0.4,1.7-0.8
		c12.5-9.9,23.3-6.7,33.6,3.9c3.4,3.6,7.9,6.2,11.9,9.2c1.8,1.4,3.7,3.1,1.3,4.8c-1.9,1.3-3.1,5.7-7.1,2.4
		c-6.5-5.3-13.4-10.1-19.9-15.3c-2.5-2-4.4-2.3-7.3-0.9c-8.7,4.2-17.5,8-26.2,12.2c-2.9,1.4-4.9,1.1-7.4-0.9
		c-7.4-5.8-15.1-11.4-22.4-17.2c-2.5-2-4.5-2.1-7.4-0.7c-8.1,4-16.5,7.4-24.5,11.5c-4,2.1-6.8,1.5-10.1-1.2
		c-6.2-5-12.8-9.5-18.9-14.5c-3.8-3.2-7.1-4.1-11.7-1.5c-6.4,3.6-13.3,6.1-19.9,9.4c-3.8,1.9-5,0.1-6.6-2.8c-1.8-3.4,0-4.4,2.5-5.5
		c9.5-4.3,19.1-8.6,28.5-13.2c2.7-1.3,4.2-0.2,6.1,1.3c7.5,5.7,15.2,11.2,22.6,17c2.7,2.2,4.9,2.2,7.9,0.8
		c7.5-3.7,15.4-6.7,22.8-10.6c4.7-2.5,8.4-2.5,12.4,1.2C-47.5-184.6-46.3-182.3-44.1-184.1L-44.1-184.1z"/>
	<path id="XMLID_6_" class="st1" d="M-39.1-196.5c-0.2,4.3,4.1,4.4,6.2,6.6c8.2,9.2,17.4,11,27.6,3.2c0.5-0.4,1.2-0.4,1.7-0.8
		c12.5-9.9,23.3-6.7,33.6,3.9c3.4,3.6,7.9,6.2,11.9,9.2c1.8,1.4,3.7,3.1,1.3,4.8c-1.9,1.3-3.1,5.7-7.1,2.4
		c-6.5-5.3-13.4-10.1-19.9-15.3c-2.5-2-4.4-2.3-7.3-0.9c-8.7,4.2-17.5,8-26.2,12.2c-2.9,1.4-4.9,1.1-7.4-0.9
		c-7.4-5.8-15.1-11.4-22.4-17.2c-2.5-2-4.5-2.1-7.4-0.7c-8.1,4-16.5,7.4-24.5,11.5c-4,2.1-6.8,1.5-10.1-1.2
		c-6.2-5-12.8-9.5-18.9-14.5c-3.8-3.2-7.1-4.1-11.7-1.5c-6.4,3.6-13.3,6.1-19.9,9.4c-3.8,1.9-5,0.1-6.6-2.8c-1.8-3.4,0-4.4,2.5-5.5
		c9.5-4.3,19.1-8.6,28.5-13.2c2.7-1.3,4.2-0.2,6.1,1.3c7.5,5.7,15.2,11.2,22.6,17c2.7,2.2,4.9,2.2,7.9,0.8
		c7.5-3.7,15.4-6.7,22.8-10.6c4.7-2.5,8.4-2.5,12.4,1.2C-42.5-197-41.3-194.7-39.1-196.5L-39.1-196.5z"/>
</g>
<g id="XMLID_10_">
	<circle id="XMLID_27_" class="st4" cx="-154.4" cy="-40.3" r="57.7"/>
	<g id="XMLID_19_">
		<path id="XMLID_26_" d="M-135.7-51.3l-5.8-4.5l-15.5,18.3l-29.3-5.5l-19.8,21.3l-28.5-5.3c0,0-17.8,21.5-18.5,21.3s-26-5.3-26-5.3
			l-3.5,8l32.5,5.5l17.8-18.8l29.5,3.8l17.5-18.8l30.5,4.6L-135.7-51.3z"/>
	</g>
	<g id="XMLID_11_">
		<path id="XMLID_23_" class="st5" d="M-286.1-7.7l3.9-9l0.4,0.1c2.5,0.5,23.4,4.6,25.9,5.2c1.5-1.1,11.8-13.4,18.2-21l0.2-0.2
			l28.5,5.3l19.8-21.3l29.2,5.5l15.6-18.4l6.5,5.1l-19.5,25.3l-30.5-4.6l-17.5,18.7l-29.5-3.8L-252.7-2L-286.1-7.7z"/>
		<path id="XMLID_20_" d="M-144.4-60.8l5.8,4.5l-19,24.6l-30.5-4.6l-17.5,18.8l-29.5-3.8l-17.8,18.8l-32.5-5.5l3.5-8
			c0,0,25.3,5,26,5.3c0,0,0,0,0,0c0.9,0,18.5-21.3,18.5-21.3l28.5,5.3l19.8-21.3l29.3,5.5L-144.4-60.8 M-144.6-62.2l-0.6,0.7
			l-15.1,17.8l-28.7-5.4l-0.5-0.1l-0.4,0.4l-19.4,20.8l-28-5.2l-0.6-0.1l-0.4,0.5c-6.1,7.3-15.9,19.1-17.9,20.8
			c-3.3-0.7-21.7-4.4-25.6-5.2l-0.8-0.2l-0.3,0.7l-3.5,8l-0.5,1.2l1.3,0.2l32.5,5.5l0.5,0.1l0.4-0.4l17.4-18.4l29,3.7l0.5,0.1
			l0.3-0.4l17.1-18.4l30,4.5l0.6,0.1l0.4-0.5l19-24.6l0.6-0.8l-0.8-0.6l-5.8-4.5L-144.6-62.2L-144.6-62.2z"/>
	</g>
</g>
<g id="XMLID_15_">
	<g id="XMLID_12_">
		<path id="XMLID_41_" d="M110.1,194.4c-2.3-4.7,0-85.5,0-85.5l62.2-8.5l-63.2-60.6l-81.3,69.1L110.1,194.4z"/>
	</g>
	<g id="XMLID_8_">
		<path id="XMLID_39_" class="st3" d="M27,74.7l82.1-69.8l64.3,61.6l-62.8,8.6c-0.8,28-1.8,81.2,0,84.8l1.5,2.9L27,74.7z"/>
		<path id="XMLID_36_" d="M109.1,5.6l63.2,60.6l-62.2,8.5c0,0-2.3,80.8,0,85.5L27.7,74.8L109.1,5.6 M109.1,4.3l-0.7,0.6L27.1,74
			l-0.8,0.7l0.7,0.8l82.4,85.5l4.5,4.7l-2.9-5.9c-1.6-3.2-0.8-51.8,0.1-84.1l61.3-8.4l2-0.3l-1.5-1.4L109.8,4.9L109.1,4.3L109.1,4.3
			z"/>
	</g>
</g>
</svg>
